<?xml version="1.0" encoding="UTF-8" standalone="no"?>
<!DOCTYPE svg PUBLIC "-//W3C//DTD SVG 1.1//EN" "http://www.w3.org/Graphics/SVG/1.1/DTD/svg11.dtd">
<svg xmlns="http://www.w3.org/2000/svg" version="1.1" viewBox="0.00 0.00 512.00 342.00">
<path fill="#822015" d="
  M 1.51 0.00
  L 510.85 0.00
  Q 511.23 1.55 509.08 3.08
  Q 506.47 4.93 506.43 4.97
  Q 390.10 100.95 273.79 196.97
  C 263.35 205.58 253.93 208.71 242.65 199.42
  Q 123.94 101.66 5.31 3.80
  Q 5.25 3.76 3.18 2.26
  Q 1.59 1.11 1.51 0.00
  Z"
/>
<path fill="#822015" d="
  M 0.00 311.43
  L 0.00 27.13
  L 173.80 170.35
  A 0.58 0.57 45.3 0 1 173.80 171.24
  L 0.00 311.43
  Z"
/>
<path fill="#822015" d="
  M 512.00 28.10
  L 512.00 311.67
  L 338.33 172.05
  Q 337.93 171.73 338.33 171.41
  L 512.00 28.10
  Z"
/>
<path fill="#822015" d="
  M 512.00 339.18
  L 512.00 340.51
  Q 510.85 341.53 509.44 342.00
  L 1.44 342.00
  L 0.00 339.64
  L 0.00 338.94
  L 190.60 185.17
  A 0.93 0.93 0.0 0 1 191.78 185.18
  Q 211.06 201.20 230.47 217.02
  C 240.78 225.40 254.36 228.24 267.28 225.04
  Q 275.62 222.97 281.19 218.43
  Q 300.92 202.30 320.35 186.17
  A 0.98 0.98 0.0 0 1 321.60 186.16
  L 512.00 339.18
  Z"
/>
</svg>
