<?xml version="1.0" encoding="UTF-8" standalone="no"?>
<!DOCTYPE svg PUBLIC "-//W3C//DTD SVG 1.1//EN" "http://www.w3.org/Graphics/SVG/1.1/DTD/svg11.dtd">
<svg xmlns="http://www.w3.org/2000/svg" version="1.1" viewBox="0.00 0.00 278.00 512.00">
<path fill="#ffffff" d="
  M 198.58 0.00
  L 266.29 0.00
  Q 277.25 1.47 277.25 13.00
  Q 277.25 48.90 277.24 84.81
  C 277.24 96.25 273.17 99.02 261.76 99.00
  Q 240.66 98.96 219.56 99.12
  C 200.90 99.27 186.37 106.06 185.90 127.26
  Q 185.53 144.16 185.82 183.75
  Q 185.82 184.25 186.32 184.25
  Q 223.60 184.25 260.88 184.27
  C 270.01 184.28 273.99 187.80 273.99 197.25
  Q 274.01 236.76 273.99 276.27
  C 273.99 286.06 269.59 288.97 259.94 288.98
  Q 223.21 289.02 186.44 288.99
  Q 185.86 288.99 185.77 289.57
  C 185.34 292.45 185.76 296.05 185.76 298.22
  Q 185.74 396.49 185.73 494.75
  C 185.73 502.91 185.36 510.95 175.18 512.00
  L 87.72 512.00
  C 79.69 510.43 78.00 505.52 78.00 497.66
  Q 78.00 393.57 78.00 289.53
  A 0.54 0.53 -0.0 0 0 77.46 289.00
  Q 46.68 289.01 15.72 288.99
  C 7.60 288.98 0.78 287.12 0.77 277.95
  Q 0.73 236.96 0.83 196.01
  C 0.86 186.51 6.66 184.28 15.20 184.27
  Q 46.35 184.23 77.47 184.26
  A 0.54 0.53 -90.0 0 0 78.00 183.72
  Q 77.99 152.97 78.01 122.00
  Q 78.03 105.71 83.05 85.77
  C 96.93 30.67 143.81 1.17 198.58 0.00
  Z"
/>
</svg>
