<?xml version="1.0" encoding="UTF-8" standalone="no"?>
<!DOCTYPE svg PUBLIC "-//W3C//DTD SVG 1.1//EN" "http://www.w3.org/Graphics/SVG/1.1/DTD/svg11.dtd">
<svg xmlns="http://www.w3.org/2000/svg" version="1.1" viewBox="0.00 0.00 512.00 512.00">
<path fill="#ffffff" d="
  M 139.85 0.00
  L 372.03 0.00
  C 450.18 2.75 509.58 61.85 512.00 140.09
  L 512.00 372.52
  C 509.25 450.55 449.85 509.38 371.90 512.00
  L 140.23 512.00
  C 61.89 509.62 2.61 450.18 0.00 371.90
  L 0.00 139.72
  C 2.65 61.68 61.87 2.80 139.85 0.00
  Z
  M 142.05 466.80
  L 369.95 466.80
  A 96.90 96.90 0.0 0 0 466.85 369.90
  L 466.85 142.93
  A 97.83 97.83 0.0 0 0 369.02 45.10
  L 142.98 45.10
  A 97.83 97.83 0.0 0 0 45.15 142.93
  L 45.15 369.90
  A 96.90 96.90 0.0 0 0 142.05 466.80
  Z"
/>
<circle fill="#ffffff" cx="393.48" cy="118.87" r="32.97"/>
<path fill="#ffffff" d="
  M 387.59 256.01
  A 131.59 131.59 0.0 0 1 256.00 387.60
  A 131.59 131.59 0.0 0 1 124.41 256.01
  A 131.59 131.59 0.0 0 1 256.00 124.42
  A 131.59 131.59 0.0 0 1 387.59 256.01
  Z
  M 342.55 256.01
  A 86.55 86.55 0.0 0 0 256.00 169.46
  A 86.55 86.55 0.0 0 0 169.45 256.01
  A 86.55 86.55 0.0 0 0 256.00 342.56
  A 86.55 86.55 0.0 0 0 342.55 256.01
  Z"
/>
</svg>
