<?xml version="1.0" encoding="UTF-8" standalone="no"?>
<!DOCTYPE svg PUBLIC "-//W3C//DTD SVG 1.1//EN" "http://www.w3.org/Graphics/SVG/1.1/DTD/svg11.dtd">
<svg xmlns="http://www.w3.org/2000/svg" version="1.1" viewBox="0.00 0.00 230.00 298.00">
<path fill="#822015" d="
  M 112.11 0.00
  L 113.74 0.00
  C 172.23 0.65 219.53 41.25 228.65 98.96
  C 233.90 132.16 216.55 164.97 199.02 192.02
  C 174.44 229.92 144.61 265.36 115.11 297.47
  Q 114.70 297.92 114.28 297.47
  C 79.37 260.29 43.55 216.98 16.98 169.27
  Q 3.95 145.87 0.00 121.77
  L 0.00 104.63
  C 6.85 45.41 52.43 2.15 112.11 0.00
  Z
  M 167.94 112.94
  A 53.27 53.27 0.0 0 0 114.67 59.67
  A 53.27 53.27 0.0 0 0 61.40 112.94
  A 53.27 53.27 0.0 0 0 114.67 166.21
  A 53.27 53.27 0.0 0 0 167.94 112.94
  Z"
/>
</svg>
