<?xml version="1.0" encoding="UTF-8" standalone="no"?>
<!DOCTYPE svg PUBLIC "-//W3C//DTD SVG 1.1//EN" "http://www.w3.org/Graphics/SVG/1.1/DTD/svg11.dtd">
<svg xmlns="http://www.w3.org/2000/svg" version="1.1" viewBox="0.00 0.00 1247.00 1680.00">
<path fill="#822015" d="
  M 416.07 0.00
  L 422.32 0.00
  C 455.35 2.65 489.00 18.96 515.05 39.70
  C 524.20 46.99 534.25 57.64 537.90 68.87
  Q 539.18 72.80 539.27 78.92
  Q 541.61 242.53 543.96 406.13
  Q 543.97 406.63 543.66 407.03
  Q 529.92 424.86 514.45 441.12
  C 498.27 458.13 475.26 470.07 453.02 477.06
  C 444.10 479.87 421.78 485.50 419.01 470.99
  Q 417.78 464.56 416.79 448.67
  Q 413.09 389.67 411.56 330.56
  Q 407.33 167.17 405.69 2.28
  Q 405.69 1.36 406.60 1.25
  L 416.07 0.00
  Z"
/>
<path fill="#822015" d="
  M 892.66 1680.00
  L 800.20 1680.00
  C 742.14 1671.60 686.43 1650.57 636.06 1621.68
  C 564.45 1580.61 499.76 1526.05 442.04 1466.71
  C 347.29 1369.28 266.37 1258.31 191.33 1144.92
  C 175.50 1121.01 160.31 1097.43 147.57 1072.93
  C 110.12 1000.94 82.80 922.17 62.42 843.06
  C 20.35 679.69 2.73 510.29 0.00 341.93
  L 0.00 329.20
  C 0.71 229.54 37.82 140.88 119.07 81.31
  C 187.90 30.85 277.42 5.84 362.15 1.51
  A 0.49 0.49 0.0 0 1 362.67 1.99
  L 376.96 488.04
  Q 376.98 488.59 376.48 488.83
  C 358.28 497.60 341.76 507.72 327.24 521.86
  C 282.67 565.31 278.74 629.84 297.17 686.28
  Q 299.64 693.82 304.37 703.28
  Q 394.17 882.75 489.43 1059.37
  Q 523.97 1123.41 560.91 1186.08
  Q 578.63 1216.15 598.96 1244.50
  Q 601.40 1247.91 610.59 1257.15
  C 658.63 1305.50 727.88 1296.52 782.06 1265.46
  Q 782.53 1265.19 782.95 1265.52
  L 1168.39 1568.59
  A 0.52 0.52 0.0 0 1 1168.34 1569.44
  C 1120.95 1599.47 1069.64 1623.27 1017.02 1642.55
  Q 955.98 1664.92 892.66 1680.00
  Z"
/>
<path fill="#822015" d="
  M 1247.00 1423.81
  L 1247.00 1429.55
  C 1246.46 1433.45 1245.84 1437.20 1244.67 1441.08
  Q 1229.19 1492.77 1212.02 1544.41
  A 0.39 0.38 28.1 0 1 1211.42 1544.59
  L 815.07 1229.96
  A 0.37 0.36 -39.5 0 1 815.13 1229.35
  Q 866.93 1202.04 918.62 1174.72
  Q 920.89 1173.52 923.27 1173.44
  C 949.16 1172.50 973.36 1185.64 993.83 1200.46
  C 1069.65 1255.39 1143.17 1314.02 1216.44 1372.30
  C 1232.72 1385.25 1244.89 1402.84 1247.00 1423.81
  Z"
/>
</svg>
