<?xml version="1.0" encoding="UTF-8" standalone="no"?>
<!DOCTYPE svg PUBLIC "-//W3C//DTD SVG 1.1//EN" "http://www.w3.org/Graphics/SVG/1.1/DTD/svg11.dtd">
<svg xmlns="http://www.w3.org/2000/svg" version="1.1" viewBox="0.00 0.00 479.00 481.00">
<path fill="#ffffff" d="
  M 126.17 447.67
  L 2.00 480.23
  Q 0.94 480.51 1.23 479.45
  L 34.54 357.78
  A 1.08 1.07 -52.8 0 0 34.43 356.95
  C -3.65 290.20 -7.37 209.83 24.19 140.44
  C 84.70 7.36 249.91 -39.80 371.52 40.21
  C 434.71 81.78 474.49 152.13 477.91 228.00
  C 485.82 403.77 305.28 527.61 143.83 455.59
  Q 135.40 451.82 127.12 447.76
  Q 126.66 447.54 126.17 447.67
  Z
  M 133.11 405.06
  C 139.22 408.67 145.87 412.64 151.65 415.52
  C 232.16 455.54 326.95 437.19 387.19 371.30
  C 422.18 333.03 439.63 283.32 438.16 231.56
  C 435.25 129.30 351.73 44.95 249.00 41.02
  C 85.74 34.76 -13.75 215.66 77.40 350.71
  A 0.99 0.95 36.3 0 1 77.54 351.52
  L 57.87 423.33
  A 0.69 0.68 -89.5 0 0 58.70 424.18
  L 132.19 404.94
  A 1.23 1.19 -36.8 0 1 133.11 405.06
  Z"
/>
<path fill="#ffffff" d="
  M 169.49 129.03
  C 174.60 129.05 177.86 132.56 179.87 137.30
  Q 190.17 161.61 200.26 185.99
  C 202.01 190.21 199.50 194.72 197.07 198.05
  Q 191.25 206.03 182.58 216.83
  C 180.03 220.00 180.69 222.99 182.68 226.48
  Q 209.93 274.11 260.28 295.68
  C 267.11 298.60 271.15 301.15 276.35 295.24
  Q 284.86 285.56 296.33 270.59
  C 300.76 264.81 309.79 269.72 315.57 272.43
  Q 348.45 287.85 358.52 293.41
  C 364.44 296.69 358.56 318.83 356.78 323.28
  C 353.28 332.03 345.61 338.05 337.28 343.29
  C 319.18 354.68 297.12 355.14 277.01 348.52
  Q 265.74 344.80 258.63 342.21
  C 207.30 323.45 168.77 284.04 138.94 239.56
  C 116.77 206.51 110.14 167.10 140.73 136.22
  C 149.57 127.30 158.15 128.99 169.49 129.03
  Z"
/>
</svg>
